<mxfile host="app.diagrams.net" modified="2024-02-22T19:59:21.369Z" agent="Mozilla/5.0 (Windows NT 10.0; Win64; x64) AppleWebKit/537.36 (KHTML, like Gecko) Chrome/122.0.0.0 Safari/537.36" etag="Y-MjF0gCf4SOfnDJiuib" version="23.1.5" type="github">
  <diagram name="Page-1" id="b5b7bab2-c9e2-2cf4-8b2a-24fd1a2a6d21">
    <mxGraphModel dx="1434" dy="738" grid="0" gridSize="10" guides="1" tooltips="1" connect="1" arrows="1" fold="1" page="1" pageScale="1" pageWidth="827" pageHeight="1169" background="none" math="0" shadow="0">
      <root>
        <mxCell id="0" />
        <mxCell id="1" parent="0" />
        <mxCell id="2m1gmCIRVApNMBWWAgiM-4" style="edgeStyle=orthogonalEdgeStyle;rounded=0;orthogonalLoop=1;jettySize=auto;html=1;entryX=0;entryY=0.5;entryDx=0;entryDy=0;" edge="1" parent="1" source="2m1gmCIRVApNMBWWAgiM-1" target="2m1gmCIRVApNMBWWAgiM-2">
          <mxGeometry relative="1" as="geometry" />
        </mxCell>
        <mxCell id="2m1gmCIRVApNMBWWAgiM-8" value="Http request" style="edgeLabel;html=1;align=center;verticalAlign=middle;resizable=0;points=[];" vertex="1" connectable="0" parent="2m1gmCIRVApNMBWWAgiM-4">
          <mxGeometry x="-0.4566" y="4" relative="1" as="geometry">
            <mxPoint y="1" as="offset" />
          </mxGeometry>
        </mxCell>
        <mxCell id="2m1gmCIRVApNMBWWAgiM-1" value="Client App&lt;br&gt;Blazor" style="whiteSpace=wrap;html=1;aspect=fixed;" vertex="1" parent="1">
          <mxGeometry x="86" y="294" width="135" height="135" as="geometry" />
        </mxCell>
        <mxCell id="2m1gmCIRVApNMBWWAgiM-5" style="edgeStyle=orthogonalEdgeStyle;rounded=0;orthogonalLoop=1;jettySize=auto;html=1;entryX=1;entryY=0.75;entryDx=0;entryDy=0;" edge="1" parent="1" source="2m1gmCIRVApNMBWWAgiM-2" target="2m1gmCIRVApNMBWWAgiM-1">
          <mxGeometry relative="1" as="geometry">
            <Array as="points">
              <mxPoint x="418" y="395" />
              <mxPoint x="418" y="395" />
            </Array>
          </mxGeometry>
        </mxCell>
        <mxCell id="2m1gmCIRVApNMBWWAgiM-9" value="Http response" style="edgeLabel;html=1;align=center;verticalAlign=middle;resizable=0;points=[];" vertex="1" connectable="0" parent="2m1gmCIRVApNMBWWAgiM-5">
          <mxGeometry x="0.3585" y="-1" relative="1" as="geometry">
            <mxPoint as="offset" />
          </mxGeometry>
        </mxCell>
        <mxCell id="2m1gmCIRVApNMBWWAgiM-2" value="TimeLog Api" style="whiteSpace=wrap;html=1;aspect=fixed;" vertex="1" parent="1">
          <mxGeometry x="486" y="291" width="141" height="141" as="geometry" />
        </mxCell>
        <mxCell id="2m1gmCIRVApNMBWWAgiM-3" value="Azure DevOps Api" style="whiteSpace=wrap;html=1;aspect=fixed;" vertex="1" parent="1">
          <mxGeometry x="502" y="658" width="139" height="139" as="geometry" />
        </mxCell>
        <mxCell id="2m1gmCIRVApNMBWWAgiM-10" value="Request queue" style="verticalLabelPosition=bottom;html=1;verticalAlign=top;align=center;strokeColor=none;fillColor=#00BEF2;shape=mxgraph.azure.queue_generic;pointerEvents=1;" vertex="1" parent="1">
          <mxGeometry x="389" y="510" width="177" height="59" as="geometry" />
        </mxCell>
        <mxCell id="2m1gmCIRVApNMBWWAgiM-11" style="edgeStyle=orthogonalEdgeStyle;rounded=0;orthogonalLoop=1;jettySize=auto;html=1;entryX=0.435;entryY=0.085;entryDx=0;entryDy=0;entryPerimeter=0;" edge="1" parent="1" source="2m1gmCIRVApNMBWWAgiM-2" target="2m1gmCIRVApNMBWWAgiM-10">
          <mxGeometry relative="1" as="geometry" />
        </mxCell>
        <mxCell id="2m1gmCIRVApNMBWWAgiM-13" style="edgeStyle=orthogonalEdgeStyle;rounded=0;orthogonalLoop=1;jettySize=auto;html=1;entryX=0.424;entryY=0.022;entryDx=0;entryDy=0;entryPerimeter=0;" edge="1" parent="1" source="2m1gmCIRVApNMBWWAgiM-10" target="2m1gmCIRVApNMBWWAgiM-3">
          <mxGeometry relative="1" as="geometry" />
        </mxCell>
        <mxCell id="2m1gmCIRVApNMBWWAgiM-15" style="edgeStyle=orthogonalEdgeStyle;rounded=0;orthogonalLoop=1;jettySize=auto;html=1;" edge="1" parent="1" source="2m1gmCIRVApNMBWWAgiM-14">
          <mxGeometry relative="1" as="geometry">
            <mxPoint x="595" y="437" as="targetPoint" />
          </mxGeometry>
        </mxCell>
        <mxCell id="2m1gmCIRVApNMBWWAgiM-16" style="edgeStyle=orthogonalEdgeStyle;rounded=0;orthogonalLoop=1;jettySize=auto;html=1;entryX=0.75;entryY=0;entryDx=0;entryDy=0;" edge="1" parent="1" source="2m1gmCIRVApNMBWWAgiM-14" target="2m1gmCIRVApNMBWWAgiM-3">
          <mxGeometry relative="1" as="geometry" />
        </mxCell>
        <mxCell id="2m1gmCIRVApNMBWWAgiM-14" value="Response queue" style="verticalLabelPosition=bottom;html=1;verticalAlign=top;align=center;strokeColor=none;fillColor=#00BEF2;shape=mxgraph.azure.queue_generic;pointerEvents=1;" vertex="1" parent="1">
          <mxGeometry x="636" y="510" width="177" height="59" as="geometry" />
        </mxCell>
      </root>
    </mxGraphModel>
  </diagram>
</mxfile>
